<svg version="1.1" xmlns="http://www.w3.org/2000/svg" xmlns:xlink="http://www.w3.org/1999/xlink" width="1392" height="1038"><defs/><g><g><path fill="none" stroke="#000000" paint-order="fill stroke markers" d=" M 20.975341796875 31 C 20.975341796875 21.6111584 28.586500196875 14 37.975341796875 14 C 47.364183396875 14 54.975341796875 21.6111584 54.975341796875 31 C 54.975341796875 40.388841600000006 47.364183396875 48 37.975341796875 48 C 28.586500196875 48 20.975341796875 40.388841600000006 20.975341796875 31 Z" stroke-miterlimit="10" stroke-dasharray=""/></g><g><path fill="none" stroke="#000000" paint-order="fill stroke markers" d=" M 20.975341796875 48 L 54.975341796875 48" stroke-miterlimit="10" stroke-dasharray=""/></g><g><g><path fill="none" stroke="none"/><text fill="#000000" stroke="none" font-family="Arial" font-size="13px" font-style="normal" font-weight="bold" text-decoration="undefined" x="44.475341796875" y="93.5" text-anchor="middle" dominant-baseline="central" transform="matrix(1 0 0 1 -6 -29)">用户</text></g></g><g><rect fill="#ffffff" stroke="none" x="176" y="40" width="128" height="50" transform="matrix(1 0 0 1 -6 -29)"/></g><g><path fill="none" stroke="#000000" paint-order="fill stroke markers" d=" M 170 11 L 298 11 L 298 61 L 170 61 L 170 11 Z Z" stroke-miterlimit="10" stroke-dasharray=""/></g><g><g><path fill="none" stroke="none"/><text fill="#000000" stroke="none" font-family="Arial" font-size="13px" font-style="normal" font-weight="normal" text-decoration="undefined" x="241" y="61" text-anchor="middle" dominant-baseline="text-before-edge" transform="matrix(1 0 0 1 -6 -29)">编辑个人资料界面</text></g></g><g><path fill="none" stroke="#000000" paint-order="fill stroke markers" d=" M 42 91 L 42 1027" stroke-miterlimit="10" stroke-dasharray="6,4"/></g><g><path fill="none" stroke="#000000" paint-order="fill stroke markers" d=" M 226 83 L 226 1027" stroke-miterlimit="10" stroke-dasharray="6,4"/></g><g><path fill="none" stroke="#000000" paint-order="fill stroke markers" d=" M 50 115 L 218 115" stroke-miterlimit="10" stroke-dasharray=""/></g><g><path fill="#000000" stroke="none" paint-order="stroke fill markers" d=" M 207.83732514237585 119.209517756016 L 218 115 L 207.83732514237585 110.790482243984"/></g><g><path fill="none" stroke="#000000" paint-order="fill stroke markers" d=" M 207.83732514237585 119.209517756016 L 218 115 L 207.83732514237585 110.790482243984 L 207.83732514237585 119.209517756016" stroke-miterlimit="10" stroke-dasharray=""/></g><g><rect fill="#ffffff" stroke="none" x="88" y="112" width="96" height="25" transform="matrix(1 0 0 1 -6 -29)"/></g><g><path fill="none" stroke="#00000000" paint-order="fill stroke markers" d=" M 82 83 L 178 83 L 178 108 L 82 108 L 82 83 Z Z" stroke-miterlimit="10" stroke-dasharray=""/></g><g><g><path fill="none" stroke="none"/><text fill="#000000" stroke="none" font-family="Arial" font-size="13px" font-style="normal" font-weight="normal" text-decoration="undefined" x="93" y="117" text-anchor="start" dominant-baseline="text-before-edge" transform="matrix(1 0 0 1 -6 -29)">1.打开(/profile)</text></g></g><g><rect fill="#ffffff" stroke="none" x="224" y="144" width="24" height="50" transform="matrix(1 0 0 1 -6 -29)"/></g><g><path fill="none" stroke="#000000" paint-order="fill stroke markers" d=" M 218 115 L 242 115 L 242 165 L 218 165 L 218 115 Z Z" stroke-miterlimit="10" stroke-dasharray=""/></g><g><rect fill="#ffffff" stroke="none" x="224" y="216" width="24" height="800" transform="matrix(1 0 0 1 -6 -29)"/></g><g><path fill="none" stroke="#000000" paint-order="fill stroke markers" d=" M 218 187 L 242 187 L 242 987 L 218 987 L 218 187 Z Z" stroke-miterlimit="10" stroke-dasharray=""/></g><g><path fill="none" stroke="#000000" paint-order="fill stroke markers" d=" M 242 115 L 266 115 L 266 187 L 242 187" stroke-miterlimit="10" stroke-dasharray=""/></g><g><path fill="#000000" stroke="none" paint-order="stroke fill markers" d=" M 252.16267485762415 182.790482243984 L 242 187 L 252.16267485762415 191.209517756016"/></g><g><path fill="none" stroke="#000000" paint-order="fill stroke markers" d=" M 252.16267485762415 182.790482243984 L 242 187 L 252.16267485762415 191.209517756016 L 252.16267485762415 182.790482243984" stroke-miterlimit="10" stroke-dasharray=""/></g><g><rect fill="#ffffff" stroke="none" x="280" y="168" width="144.3671875" height="25" transform="matrix(1 0 0 1 -6 -29)"/></g><g><path fill="none" stroke="#00000000" paint-order="fill stroke markers" d=" M 274 139 L 418.3671875 139 L 418.3671875 164 L 274 164 L 274 139 Z Z" stroke-miterlimit="10" stroke-dasharray=""/></g><g><g><path fill="none" stroke="none"/><text fill="#000000" stroke="none" font-family="Arial" font-size="13px" font-style="normal" font-weight="normal" text-decoration="undefined" x="285" y="173" text-anchor="start" dominant-baseline="text-before-edge" transform="matrix(1 0 0 1 -6 -29)">2.显示(UserProfile.vue)</text></g></g><g><rect fill="#ffffff" stroke="none" x="232" y="232" width="24" height="56" transform="matrix(1 0 0 1 -6 -29)"/></g><g><path fill="none" stroke="#000000" paint-order="fill stroke markers" d=" M 226 203 L 250 203 L 250 259 L 226 259 L 226 203 Z Z" stroke-miterlimit="10" stroke-dasharray=""/></g><g><path fill="none" stroke="#000000" paint-order="fill stroke markers" d=" M 50 203 L 226 203" stroke-miterlimit="10" stroke-dasharray=""/></g><g><path fill="#000000" stroke="none" paint-order="stroke fill markers" d=" M 215.83732514237585 207.209517756016 L 226 203 L 215.83732514237585 198.790482243984"/></g><g><path fill="none" stroke="#000000" paint-order="fill stroke markers" d=" M 215.83732514237585 207.209517756016 L 226 203 L 215.83732514237585 198.790482243984 L 215.83732514237585 207.209517756016" stroke-miterlimit="10" stroke-dasharray=""/></g><g><rect fill="#ffffff" stroke="none" x="88" y="200" width="112" height="25" transform="matrix(1 0 0 1 -6 -29)"/></g><g><path fill="none" stroke="#00000000" paint-order="fill stroke markers" d=" M 82 171 L 194 171 L 194 196 L 82 196 L 82 171 Z Z" stroke-miterlimit="10" stroke-dasharray=""/></g><g><g><path fill="none" stroke="none"/><text fill="#000000" stroke="none" font-family="Arial" font-size="13px" font-style="normal" font-weight="normal" text-decoration="undefined" x="93" y="205" text-anchor="start" dominant-baseline="text-before-edge" transform="matrix(1 0 0 1 -6 -29)">3.选择文件(input)</text></g></g><g><rect fill="#ffffff" stroke="none" x="402" y="39" width="128" height="50" transform="matrix(1 0 0 1 -6 -29)"/></g><g><path fill="none" stroke="#000000" paint-order="fill stroke markers" d=" M 396 10 L 524 10 L 524 60 L 396 60 L 396 10 Z Z" stroke-miterlimit="10" stroke-dasharray=""/></g><g><g><path fill="none" stroke="none"/><text fill="#000000" stroke="none" font-family="Arial" font-size="13px" font-style="normal" font-weight="normal" text-decoration="undefined" x="467" y="60" text-anchor="middle" dominant-baseline="text-before-edge" transform="matrix(1 0 0 1 -6 -29)">文件选择弹窗</text></g></g><g><path fill="none" stroke="#000000" paint-order="fill stroke markers" d=" M 458 83 L 458 1027" stroke-miterlimit="10" stroke-dasharray="6,4"/></g><g><rect fill="#ffffff" stroke="none" x="456" y="288" width="24" height="56" transform="matrix(1 0 0 1 -6 -29)"/></g><g><path fill="none" stroke="#000000" paint-order="fill stroke markers" d=" M 450 259 L 474 259 L 474 315 L 450 315 L 450 259 Z Z" stroke-miterlimit="10" stroke-dasharray=""/></g><g><path fill="none" stroke="#000000" paint-order="fill stroke markers" d=" M 250 259 L 448 259" stroke-miterlimit="10" stroke-dasharray=""/></g><g><path fill="#000000" stroke="none" paint-order="stroke fill markers" d=" M 437.83732514237585 263.209517756016 L 448 259 L 437.83732514237585 254.790482243984"/></g><g><path fill="none" stroke="#000000" paint-order="fill stroke markers" d=" M 437.83732514237585 263.209517756016 L 448 259 L 437.83732514237585 254.790482243984 L 437.83732514237585 263.209517756016" stroke-miterlimit="10" stroke-dasharray=""/></g><g><rect fill="#ffffff" stroke="none" x="280" y="256" width="152" height="25" transform="matrix(1 0 0 1 -6 -29)"/></g><g><path fill="none" stroke="#00000000" paint-order="fill stroke markers" d=" M 274 227 L 426 227 L 426 252 L 274 252 L 274 227 Z Z" stroke-miterlimit="10" stroke-dasharray=""/></g><g><g><path fill="none" stroke="none"/><text fill="#000000" stroke="none" font-family="Arial" font-size="13px" font-style="normal" font-weight="normal" text-decoration="undefined" x="285" y="261" text-anchor="start" dominant-baseline="text-before-edge" transform="matrix(1 0 0 1 -6 -29)">4.选择图片文件(system)</text></g></g><g><rect fill="#ffffff" stroke="none" x="232" y="400" width="24" height="56" transform="matrix(1 0 0 1 -6 -29)"/></g><g><path fill="none" stroke="#000000" paint-order="fill stroke markers" d=" M 226 371 L 250 371 L 250 427 L 226 427 L 226 371 Z Z" stroke-miterlimit="10" stroke-dasharray=""/></g><g><path fill="none" stroke="#000000" paint-order="fill stroke markers" d=" M 474 315 L 690 315" stroke-miterlimit="10" stroke-dasharray=""/></g><g><path fill="#000000" stroke="none" paint-order="stroke fill markers" d=" M 679.8373251423759 319.209517756016 L 690 315 L 679.8373251423758 310.790482243984"/></g><g><path fill="none" stroke="#000000" paint-order="fill stroke markers" d=" M 679.8373251423759 319.209517756016 L 690 315 L 679.8373251423758 310.790482243984 L 679.8373251423759 319.209517756016" stroke-miterlimit="10" stroke-dasharray=""/></g><g><rect fill="#ffffff" stroke="none" x="480" y="368" width="208" height="25" transform="matrix(1 0 0 1 -6 -29)"/></g><g><path fill="none" stroke="#00000000" paint-order="fill stroke markers" d=" M 474 339 L 682 339 L 682 364 L 474 364 L 474 339 Z Z" stroke-miterlimit="10" stroke-dasharray=""/></g><g><g><path fill="none" stroke="none"/><text fill="#000000" stroke="none" font-family="Arial" font-size="13px" font-style="normal" font-weight="normal" text-decoration="undefined" x="485" y="373" text-anchor="start" dominant-baseline="text-before-edge" transform="matrix(1 0 0 1 -6 -29)">6.成功：返回图片文件(system)</text></g></g><g><rect fill="#ffffff" stroke="none" x="642" y="39" width="128" height="50" transform="matrix(1 0 0 1 -6 -29)"/></g><g><path fill="none" stroke="#000000" paint-order="fill stroke markers" d=" M 636 10 L 764 10 L 764 60 L 636 60 L 636 10 Z Z" stroke-miterlimit="10" stroke-dasharray=""/></g><g><g><path fill="none" stroke="none"/><text fill="#000000" stroke="none" font-family="Arial" font-size="13px" font-style="normal" font-weight="normal" text-decoration="undefined" x="707" y="60" text-anchor="middle" dominant-baseline="text-before-edge" transform="matrix(1 0 0 1 -6 -29)">图片格式验证类</text></g></g><g><path fill="none" stroke="#000000" paint-order="fill stroke markers" d=" M 698 83 L 698 1027" stroke-miterlimit="10" stroke-dasharray="6,4"/></g><g><rect fill="#ffffff" stroke="none" x="696" y="344" width="24" height="56" transform="matrix(1 0 0 1 -6 -29)"/></g><g><path fill="none" stroke="#000000" paint-order="fill stroke markers" d=" M 690 315 L 714 315 L 714 371 L 690 371 L 690 315 Z Z" stroke-miterlimit="10" stroke-dasharray=""/></g><g><path fill="none" stroke="#000000" paint-order="fill stroke markers" d=" M 690 371 L 250 371" stroke-miterlimit="10" stroke-dasharray=""/></g><g><path fill="#000000" stroke="none" paint-order="stroke fill markers" d=" M 260.16267485762415 366.790482243984 L 250 371 L 260.16267485762415 375.209517756016"/></g><g><path fill="none" stroke="#000000" paint-order="fill stroke markers" d=" M 260.16267485762415 366.790482243984 L 250 371 L 260.16267485762415 375.209517756016 L 260.16267485762415 366.790482243984" stroke-miterlimit="10" stroke-dasharray=""/></g><g><rect fill="#ffffff" stroke="none" x="496" y="312" width="184" height="25" transform="matrix(1 0 0 1 -6 -29)"/></g><g><path fill="none" stroke="#00000000" paint-order="fill stroke markers" d=" M 490 283 L 674 283 L 674 308 L 490 308 L 490 283 Z Z" stroke-miterlimit="10" stroke-dasharray=""/></g><g><g><path fill="none" stroke="none"/><text fill="#000000" stroke="none" font-family="Arial" font-size="13px" font-style="normal" font-weight="normal" text-decoration="undefined" x="501" y="317" text-anchor="start" dominant-baseline="text-before-edge" transform="matrix(1 0 0 1 -6 -29)">5.验证(onAvatarFileChange)</text></g></g><g><rect fill="#ffffff" stroke="none" x="232" y="792" width="24" height="56" transform="matrix(1 0 0 1 -6 -29)"/></g><g><path fill="none" stroke="#000000" paint-order="fill stroke markers" d=" M 226 763 L 250 763 L 250 819 L 226 819 L 226 763 Z Z" stroke-miterlimit="10" stroke-dasharray=""/></g><g><path fill="none" stroke="#000000" paint-order="fill stroke markers" d=" M 714 339 L 746 339 L 746 763 L 250 763" stroke-miterlimit="10" stroke-dasharray=""/></g><g><path fill="#000000" stroke="none" paint-order="stroke fill markers" d=" M 260.16267485762415 758.790482243984 L 250 763 L 260.16267485762415 767.209517756016"/></g><g><path fill="none" stroke="#000000" paint-order="fill stroke markers" d=" M 260.16267485762415 758.790482243984 L 250 763 L 260.16267485762415 767.209517756016 L 260.16267485762415 758.790482243984" stroke-miterlimit="10" stroke-dasharray=""/></g><g><rect fill="#ffffff" stroke="none" x="480" y="760" width="216" height="25" transform="matrix(1 0 0 1 -6 -29)"/></g><g><path fill="none" stroke="#00000000" paint-order="fill stroke markers" d=" M 474 731 L 690 731 L 690 756 L 474 756 L 474 731 Z Z" stroke-miterlimit="10" stroke-dasharray=""/></g><g><g><path fill="none" stroke="none"/><text fill="#000000" stroke="none" font-family="Arial" font-size="13px" font-style="normal" font-weight="normal" text-decoration="undefined" x="485" y="765" text-anchor="start" dominant-baseline="text-before-edge" transform="matrix(1 0 0 1 -6 -29)">7.失败：返回报错(avatarInfo.value)</text></g></g><g><rect fill="#ffffff" stroke="none" x="919" y="41" width="128" height="50" transform="matrix(1 0 0 1 -6 -29)"/></g><g><path fill="none" stroke="#000000" paint-order="fill stroke markers" d=" M 913 12 L 1041 12 L 1041 62 L 913 62 L 913 12 Z Z" stroke-miterlimit="10" stroke-dasharray=""/></g><g><g><path fill="none" stroke="none"/><text fill="#000000" stroke="none" font-family="Arial" font-size="13px" font-style="normal" font-weight="normal" text-decoration="undefined" x="984" y="62" text-anchor="middle" dominant-baseline="text-before-edge" transform="matrix(1 0 0 1 -6 -29)">上传头像类</text></g></g><g><path fill="none" stroke="#000000" paint-order="fill stroke markers" d=" M 970 83 L 970 1027" stroke-miterlimit="10" stroke-dasharray="6,4"/></g><g><rect fill="#ffffff" stroke="none" x="1260" y="41" width="128" height="50" transform="matrix(1 0 0 1 -6 -29)"/></g><g><path fill="none" stroke="#000000" paint-order="fill stroke markers" d=" M 1254 12 L 1382 12 L 1382 62 L 1254 62 L 1254 12 Z Z" stroke-miterlimit="10" stroke-dasharray=""/></g><g><g><path fill="none" stroke="none"/><text fill="#000000" stroke="none" font-family="Arial" font-size="13px" font-style="normal" font-weight="normal" text-decoration="undefined" x="1325" y="62" text-anchor="middle" dominant-baseline="text-before-edge" transform="matrix(1 0 0 1 -6 -29)">数据库接口类</text></g></g><g><path fill="none" stroke="#000000" paint-order="fill stroke markers" d=" M 1234 83 L 1234 83" stroke-miterlimit="10" stroke-dasharray=""/></g><g><path fill="none" stroke="#000000" paint-order="fill stroke markers" d=" M 1226 835 L 1226 835" stroke-miterlimit="10" stroke-dasharray=""/></g><g><path fill="none" stroke="#000000" paint-order="fill stroke markers" d=" M 1322 83 L 1322 1027" stroke-miterlimit="10" stroke-dasharray="6,4"/></g><g><rect fill="#ffffff" stroke="none" x="232" y="480" width="24" height="56" transform="matrix(1 0 0 1 -6 -29)"/></g><g><path fill="none" stroke="#000000" paint-order="fill stroke markers" d=" M 226 451 L 250 451 L 250 507 L 226 507 L 226 451 Z Z" stroke-miterlimit="10" stroke-dasharray=""/></g><g><path fill="none" stroke="#000000" paint-order="fill stroke markers" d=" M 42 451 L 226 451" stroke-miterlimit="10" stroke-dasharray=""/></g><g><path fill="#000000" stroke="none" paint-order="stroke fill markers" d=" M 215.83732514237585 455.209517756016 L 226 451 L 215.83732514237585 446.790482243984"/></g><g><path fill="none" stroke="#000000" paint-order="fill stroke markers" d=" M 215.83732514237585 455.209517756016 L 226 451 L 215.83732514237585 446.790482243984 L 215.83732514237585 455.209517756016" stroke-miterlimit="10" stroke-dasharray=""/></g><g><rect fill="#ffffff" stroke="none" x="80" y="448" width="117.6435546875" height="25" transform="matrix(1 0 0 1 -6 -29)"/></g><g><path fill="none" stroke="#00000000" paint-order="fill stroke markers" d=" M 74 419 L 191.6435546875 419 L 191.6435546875 444 L 74 444 L 74 419 Z Z" stroke-miterlimit="10" stroke-dasharray=""/></g><g><g><path fill="none" stroke="none"/><text fill="#000000" stroke="none" font-family="Arial" font-size="13px" font-style="normal" font-weight="normal" text-decoration="undefined" x="85" y="453" text-anchor="start" dominant-baseline="text-before-edge" transform="matrix(1 0 0 1 -6 -29)">8.上传头像(上传)</text></g></g><g><rect fill="#ffffff" stroke="none" x="968" y="536" width="24" height="56" transform="matrix(1 0 0 1 -6 -29)"/></g><g><path fill="none" stroke="#000000" paint-order="fill stroke markers" d=" M 962 507 L 986 507 L 986 563 L 962 563 L 962 507 Z Z" stroke-miterlimit="10" stroke-dasharray=""/></g><g><path fill="none" stroke="#000000" paint-order="fill stroke markers" d=" M 250 507 L 962 508" stroke-miterlimit="10" stroke-dasharray=""/></g><g><path fill="#000000" stroke="none" paint-order="stroke fill markers" d=" M 951.8314229276218 512.1952401984994 L 962 508 L 951.843247404038 503.7762129901687"/></g><g><path fill="none" stroke="#000000" paint-order="fill stroke markers" d=" M 951.8314229276218 512.1952401984994 L 962 508 L 951.843247404038 503.7762129901687 L 951.8314229276218 512.1952401984994" stroke-miterlimit="10" stroke-dasharray=""/></g><g><rect fill="#ffffff" stroke="none" x="792" y="504" width="136" height="25" transform="matrix(1 0 0 1 -6 -29)"/></g><g><path fill="none" stroke="#00000000" paint-order="fill stroke markers" d=" M 786 475 L 922 475 L 922 500 L 786 500 L 786 475 Z Z" stroke-miterlimit="10" stroke-dasharray=""/></g><g><g><path fill="none" stroke="none"/><text fill="#000000" stroke="none" font-family="Arial" font-size="13px" font-style="normal" font-weight="normal" text-decoration="undefined" x="797" y="509" text-anchor="start" dominant-baseline="text-before-edge" transform="matrix(1 0 0 1 -6 -29)">9.验证(uploadAvatar)</text></g></g><g><rect fill="#ffffff" stroke="none" x="1320" y="592" width="24" height="56" transform="matrix(1 0 0 1 -6 -29)"/></g><g><path fill="none" stroke="#000000" paint-order="fill stroke markers" d=" M 1314 563 L 1338 563 L 1338 619 L 1314 619 L 1314 563 Z Z" stroke-miterlimit="10" stroke-dasharray=""/></g><g><path fill="none" stroke="#000000" paint-order="fill stroke markers" d=" M 986 563 L 1314 563" stroke-miterlimit="10" stroke-dasharray=""/></g><g><path fill="#000000" stroke="none" paint-order="stroke fill markers" d=" M 1303.837325142376 567.209517756016 L 1314 563 L 1303.837325142376 558.790482243984"/></g><g><path fill="none" stroke="#000000" paint-order="fill stroke markers" d=" M 1303.837325142376 567.209517756016 L 1314 563 L 1303.837325142376 558.790482243984 L 1303.837325142376 567.209517756016" stroke-miterlimit="10" stroke-dasharray=""/></g><g><rect fill="#ffffff" stroke="none" x="1032" y="560" width="264.337890625" height="25" transform="matrix(1 0 0 1 -6 -29)"/></g><g><path fill="none" stroke="#00000000" paint-order="fill stroke markers" d=" M 1026 531 L 1290.337890625 531 L 1290.337890625 556 L 1026 556 L 1026 531 Z Z" stroke-miterlimit="10" stroke-dasharray=""/></g><g><g><path fill="none" stroke="none"/><text fill="#000000" stroke="none" font-family="Arial" font-size="13px" font-style="normal" font-weight="normal" text-decoration="undefined" x="1037" y="565" text-anchor="start" dominant-baseline="text-before-edge" transform="matrix(1 0 0 1 -6 -29)">10.成功：验证(upload_current_user_avatar)</text></g></g><g><rect fill="#ffffff" stroke="none" x="232" y="576" width="24" height="56" transform="matrix(1 0 0 1 -6 -29)"/></g><g><path fill="none" stroke="#000000" paint-order="fill stroke markers" d=" M 226 547 L 250 547 L 250 603 L 226 603 L 226 547 Z Z" stroke-miterlimit="10" stroke-dasharray=""/></g><g><path fill="none" stroke="#000000" paint-order="fill stroke markers" d=" M 962 547 L 250 547" stroke-miterlimit="10" stroke-dasharray=""/></g><g><path fill="#000000" stroke="none" paint-order="stroke fill markers" d=" M 260.16267485762415 542.790482243984 L 250 547 L 260.16267485762415 551.209517756016"/></g><g><path fill="none" stroke="#000000" paint-order="fill stroke markers" d=" M 260.16267485762415 542.790482243984 L 250 547 L 260.16267485762415 551.209517756016 L 260.16267485762415 542.790482243984" stroke-miterlimit="10" stroke-dasharray=""/></g><g><rect fill="#ffffff" stroke="none" x="472" y="544" width="225.7568359375" height="25" transform="matrix(1 0 0 1 -6 -29)"/></g><g><path fill="none" stroke="#00000000" paint-order="fill stroke markers" d=" M 466 515 L 691.7568359375 515 L 691.7568359375 540 L 466 540 L 466 515 Z Z" stroke-miterlimit="10" stroke-dasharray=""/></g><g><g><path fill="none" stroke="none"/><text fill="#000000" stroke="none" font-family="Arial" font-size="13px" font-style="normal" font-weight="normal" text-decoration="undefined" x="477" y="549" text-anchor="start" dominant-baseline="text-before-edge" transform="matrix(1 0 0 1 -6 -29)">11.失败：返回报错(avatarError.value)</text></g></g><g><rect fill="#ffffff" stroke="none" x="232" y="648" width="24" height="56" transform="matrix(1 0 0 1 -6 -29)"/></g><g><path fill="none" stroke="#000000" paint-order="fill stroke markers" d=" M 226 619 L 250 619 L 250 675 L 226 675 L 226 619 Z Z" stroke-miterlimit="10" stroke-dasharray=""/></g><g><path fill="none" stroke="#000000" paint-order="fill stroke markers" d=" M 1314 619 L 250 619" stroke-miterlimit="10" stroke-dasharray=""/></g><g><path fill="#000000" stroke="none" paint-order="stroke fill markers" d=" M 260.16267485762415 614.790482243984 L 250 619 L 260.16267485762415 623.209517756016"/></g><g><path fill="none" stroke="#000000" paint-order="fill stroke markers" d=" M 260.16267485762415 614.790482243984 L 250 619 L 260.16267485762415 623.209517756016 L 260.16267485762415 614.790482243984" stroke-miterlimit="10" stroke-dasharray=""/></g><g><rect fill="#ffffff" stroke="none" x="1048" y="616" width="226.7216796875" height="25" transform="matrix(1 0 0 1 -6 -29)"/></g><g><path fill="none" stroke="#00000000" paint-order="fill stroke markers" d=" M 1042 587 L 1268.7216796875 587 L 1268.7216796875 612 L 1042 612 L 1042 587 Z Z" stroke-miterlimit="10" stroke-dasharray=""/></g><g><g><path fill="none" stroke="none"/><text fill="#000000" stroke="none" font-family="Arial" font-size="13px" font-style="normal" font-weight="normal" text-decoration="undefined" x="1053" y="621" text-anchor="start" dominant-baseline="text-before-edge" transform="matrix(1 0 0 1 -6 -29)">13.失败：返回报错(res.ok = false)</text></g></g><g><rect fill="#ffffff" stroke="none" x="232" y="720" width="24" height="56" transform="matrix(1 0 0 1 -6 -29)"/></g><g><path fill="none" stroke="#000000" paint-order="fill stroke markers" d=" M 226 691 L 250 691 L 250 747 L 226 747 L 226 691 Z Z" stroke-miterlimit="10" stroke-dasharray=""/></g><g><path fill="none" stroke="#000000" paint-order="fill stroke markers" d=" M 1338 587 L 1370 587 L 1370 691 L 250 691" stroke-miterlimit="10" stroke-dasharray=""/></g><g><path fill="#000000" stroke="none" paint-order="stroke fill markers" d=" M 260.16267485762415 686.790482243984 L 250 691 L 260.16267485762415 695.209517756016"/></g><g><path fill="none" stroke="#000000" paint-order="fill stroke markers" d=" M 260.16267485762415 686.790482243984 L 250 691 L 260.16267485762415 695.209517756016 L 260.16267485762415 686.790482243984" stroke-miterlimit="10" stroke-dasharray=""/></g><g><rect fill="#ffffff" stroke="none" x="1064" y="688" width="184" height="25" transform="matrix(1 0 0 1 -6 -29)"/></g><g><path fill="none" stroke="#00000000" paint-order="fill stroke markers" d=" M 1058 659 L 1242 659 L 1242 684 L 1058 684 L 1058 659 Z Z" stroke-miterlimit="10" stroke-dasharray=""/></g><g><g><path fill="none" stroke="none"/><text fill="#000000" stroke="none" font-family="Arial" font-size="13px" font-style="normal" font-weight="normal" text-decoration="undefined" x="1069" y="693" text-anchor="start" dominant-baseline="text-before-edge" transform="matrix(1 0 0 1 -6 -29)">12.成功：显示头像(setAvatar)</text></g></g><g><rect fill="#ffffff" stroke="none" x="232" y="872" width="24" height="56" transform="matrix(1 0 0 1 -6 -29)"/></g><g><path fill="none" stroke="#000000" paint-order="fill stroke markers" d=" M 226 843 L 250 843 L 250 899 L 226 899 L 226 843 Z Z" stroke-miterlimit="10" stroke-dasharray=""/></g><g><path fill="none" stroke="#000000" paint-order="fill stroke markers" d=" M 42 843 L 226 843" stroke-miterlimit="10" stroke-dasharray=""/></g><g><path fill="#000000" stroke="none" paint-order="stroke fill markers" d=" M 215.83732514237585 847.209517756016 L 226 843 L 215.83732514237585 838.790482243984"/></g><g><path fill="none" stroke="#000000" paint-order="fill stroke markers" d=" M 215.83732514237585 847.209517756016 L 226 843 L 215.83732514237585 838.790482243984 L 215.83732514237585 847.209517756016" stroke-miterlimit="10" stroke-dasharray=""/></g><g><rect fill="#ffffff" stroke="none" x="80" y="840" width="124.87353515625" height="25" transform="matrix(1 0 0 1 -6 -29)"/></g><g><path fill="none" stroke="#00000000" paint-order="fill stroke markers" d=" M 74 811 L 198.87353515625 811 L 198.87353515625 836 L 74 836 L 74 811 Z Z" stroke-miterlimit="10" stroke-dasharray=""/></g><g><g><path fill="none" stroke="none"/><text fill="#000000" stroke="none" font-family="Arial" font-size="13px" font-style="normal" font-weight="normal" text-decoration="undefined" x="85" y="845" text-anchor="start" dominant-baseline="text-before-edge" transform="matrix(1 0 0 1 -6 -29)">14.清空头像(取消)</text></g></g><g><rect fill="#ffffff" stroke="none" x="232" y="944" width="24" height="56" transform="matrix(1 0 0 1 -6 -29)"/></g><g><path fill="none" stroke="#000000" paint-order="fill stroke markers" d=" M 226 915 L 250 915 L 250 971 L 226 971 L 226 915 Z Z" stroke-miterlimit="10" stroke-dasharray=""/></g><g><path fill="none" stroke="#000000" paint-order="fill stroke markers" d=" M 298 891 L 298 891" stroke-miterlimit="10" stroke-dasharray=""/></g><g><path fill="none" stroke="#000000" paint-order="fill stroke markers" d=" M 250 875 L 266 875 L 266 947 L 250 947" stroke-miterlimit="10" stroke-dasharray=""/></g><g><path fill="#000000" stroke="none" paint-order="stroke fill markers" d=" M 260.16267485762415 942.790482243984 L 250 947 L 260.16267485762415 951.209517756016"/></g><g><path fill="none" stroke="#000000" paint-order="fill stroke markers" d=" M 260.16267485762415 942.790482243984 L 250 947 L 260.16267485762415 951.209517756016 L 260.16267485762415 942.790482243984" stroke-miterlimit="10" stroke-dasharray=""/></g><g><rect fill="#ffffff" stroke="none" x="280" y="928" width="181.72314453125" height="25" transform="matrix(1 0 0 1 -6 -29)"/></g><g><path fill="none" stroke="#00000000" paint-order="fill stroke markers" d=" M 274 899 L 455.72314453125 899 L 455.72314453125 924 L 274 924 L 274 899 Z Z" stroke-miterlimit="10" stroke-dasharray=""/></g><g><g><path fill="none" stroke="none"/><text fill="#000000" stroke="none" font-family="Arial" font-size="13px" font-style="normal" font-weight="normal" text-decoration="undefined" x="285" y="933" text-anchor="start" dominant-baseline="text-before-edge" transform="matrix(1 0 0 1 -6 -29)">15.重置(clearAvatarSelection)</text></g></g></g></svg>