<svg version="1.1" xmlns="http://www.w3.org/2000/svg" xmlns:xlink="http://www.w3.org/1999/xlink" width="1616" height="541"><defs/><g><g><path fill="none" stroke="#000000" paint-order="fill stroke markers" d=" M 24 30 C 24 20.6111584 31.611158399999994 13 41 13 C 50.388841600000006 13 58 20.6111584 58 30 C 58 39.388841600000006 50.388841600000006 47 41 47 C 31.611158399999994 47 24 39.388841600000006 24 30 Z" stroke-miterlimit="10" stroke-dasharray=""/></g><g><path fill="none" stroke="#000000" paint-order="fill stroke markers" d=" M 24 47 L 58 47" stroke-miterlimit="10" stroke-dasharray=""/></g><g><g><path fill="none" stroke="none"/><text fill="#000000" stroke="none" font-family="Arial" font-size="13px" font-style="normal" font-weight="bold" text-decoration="undefined" x="87.5" y="101.5" text-anchor="middle" dominant-baseline="central" transform="matrix(1 0 0 1 -46 -38)">后厨端UI</text></g></g><g><path fill="none" stroke="#000000" paint-order="fill stroke markers" d=" M 24 478 C 24 468.6111584 31.611158399999994 461 41 461 C 50.388841600000006 461 58 468.6111584 58 478 C 58 487.3888416 50.388841600000006 495 41 495 C 31.611158399999994 495 24 487.3888416 24 478 Z" stroke-miterlimit="10" stroke-dasharray=""/></g><g><path fill="none" stroke="#000000" paint-order="fill stroke markers" d=" M 24 495 L 58 495" stroke-miterlimit="10" stroke-dasharray=""/></g><g><g><path fill="none" stroke="none"/><text fill="#000000" stroke="none" font-family="Arial" font-size="13px" font-style="normal" font-weight="bold" text-decoration="undefined" x="87.5" y="549.5" text-anchor="middle" dominant-baseline="central" transform="matrix(1 0 0 1 -46 -38)">后厨端UI</text></g></g><g><path fill="none" stroke="#000000" paint-order="fill stroke markers" d=" M 42 66 L 40 459" stroke-miterlimit="10" stroke-dasharray="6,4"/></g><g><rect fill="#ffffff" stroke="none" x="192" y="80" width="128.23779296875" height="25" transform="matrix(1 0 0 1 -46 -38)"/></g><g><path fill="none" stroke="#000000" paint-order="fill stroke markers" d=" M 146 42 L 274.23779296875 42 L 274.23779296875 67 L 146 67 L 146 42 Z Z" stroke-miterlimit="10" stroke-dasharray=""/></g><g><g><path fill="none" stroke="none"/><text fill="#000000" stroke="none" font-family="Arial" font-size="13px" font-style="normal" font-weight="normal" text-decoration="undefined" x="197" y="85" text-anchor="start" dominant-baseline="text-before-edge" transform="matrix(1 0 0 1 -46 -38)">后厨WebSocket服务</text></g></g><g><rect fill="#ffffff" stroke="none" x="432" y="80" width="75" height="25" transform="matrix(1 0 0 1 -46 -38)"/></g><g><path fill="none" stroke="#000000" paint-order="fill stroke markers" d=" M 386 42 L 461 42 L 461 67 L 386 67 L 386 42 Z Z" stroke-miterlimit="10" stroke-dasharray=""/></g><g><g><path fill="none" stroke="none"/><text fill="#000000" stroke="none" font-family="Arial" font-size="13px" font-style="normal" font-weight="normal" text-decoration="undefined" x="437" y="85" text-anchor="start" dominant-baseline="text-before-edge" transform="matrix(1 0 0 1 -46 -38)">订单路由层</text></g></g><g><rect fill="#ffffff" stroke="none" x="704" y="80" width="88" height="25" transform="matrix(1 0 0 1 -46 -38)"/></g><g><path fill="none" stroke="#000000" paint-order="fill stroke markers" d=" M 658 42 L 746 42 L 746 67 L 658 67 L 658 42 Z Z" stroke-miterlimit="10" stroke-dasharray=""/></g><g><g><path fill="none" stroke="none"/><text fill="#000000" stroke="none" font-family="Arial" font-size="13px" font-style="normal" font-weight="normal" text-decoration="undefined" x="709" y="85" text-anchor="start" dominant-baseline="text-before-edge" transform="matrix(1 0 0 1 -46 -38)">订单业务服务</text></g></g><g><rect fill="#ffffff" stroke="none" x="184" y="520" width="128.23779296875" height="25" transform="matrix(1 0 0 1 -46 -38)"/></g><g><path fill="none" stroke="#000000" paint-order="fill stroke markers" d=" M 138 482 L 266.23779296875 482 L 266.23779296875 507 L 138 507 L 138 482 Z Z" stroke-miterlimit="10" stroke-dasharray=""/></g><g><g><path fill="none" stroke="none"/><text fill="#000000" stroke="none" font-family="Arial" font-size="13px" font-style="normal" font-weight="normal" text-decoration="undefined" x="189" y="525" text-anchor="start" dominant-baseline="text-before-edge" transform="matrix(1 0 0 1 -46 -38)">后厨WebSocket服务</text></g></g><g><path fill="none" stroke="#000000" paint-order="fill stroke markers" d=" M 218 66 L 218 66" stroke-miterlimit="10" stroke-dasharray=""/></g><g><path fill="none" stroke="#000000" paint-order="fill stroke markers" d=" M 202 74 L 202 476" stroke-miterlimit="10" stroke-dasharray="6,4"/></g><g><path fill="none" stroke="#000000" paint-order="fill stroke markers" d=" M 42 130 L 199 131" stroke-miterlimit="10" stroke-dasharray=""/></g><g><path fill="#000000" stroke="none" paint-order="stroke fill markers" d=" M 188.81071961277337 135.14470326929185 L 199 131 L 188.86434295505865 126.72583853050327"/></g><g><path fill="none" stroke="#000000" paint-order="fill stroke markers" d=" M 188.81071961277337 135.14470326929185 L 199 131 L 188.86434295505865 126.72583853050327 L 188.81071961277337 135.14470326929185" stroke-miterlimit="10" stroke-dasharray=""/></g><g><g><path fill="none" stroke="none"/><text fill="#000000" stroke="none" font-family="Arial" font-size="13px" font-style="normal" font-weight="normal" text-decoration="undefined" x="109" y="141" text-anchor="start" dominant-baseline="text-before-edge" transform="matrix(1 0 0 1 -46 -38)">WS订阅后订单消息</text></g></g><g><path fill="none" stroke="#000000" paint-order="fill stroke markers" d=" M 186 186 L 50 186" stroke-miterlimit="10" stroke-dasharray="6,4"/></g><g><path fill="#000000" stroke="none" paint-order="stroke fill markers" d=" M 60.162674857624154 181.790482243984 L 50 186 L 60.162674857624154 190.209517756016"/></g><g><path fill="none" stroke="#000000" paint-order="fill stroke markers" d=" M 60.162674857624154 181.790482243984 L 50 186 L 60.162674857624154 190.209517756016 L 60.162674857624154 181.790482243984" stroke-miterlimit="10" stroke-dasharray=""/></g><g><g><path fill="none" stroke="none"/><text fill="#000000" stroke="none" font-family="Arial" font-size="13px" font-style="normal" font-weight="normal" text-decoration="undefined" x="139" y="205" text-anchor="start" dominant-baseline="text-before-edge" transform="matrix(1 0 0 1 -46 -38)">订阅成功</text></g></g><g><rect fill="#ffffff" stroke="none" x="424" y="520" width="75" height="25" transform="matrix(1 0 0 1 -46 -38)"/></g><g><path fill="none" stroke="#000000" paint-order="fill stroke markers" d=" M 378 482 L 453 482 L 453 507 L 378 507 L 378 482 Z Z" stroke-miterlimit="10" stroke-dasharray=""/></g><g><g><path fill="none" stroke="none"/><text fill="#000000" stroke="none" font-family="Arial" font-size="13px" font-style="normal" font-weight="normal" text-decoration="undefined" x="429" y="525" text-anchor="start" dominant-baseline="text-before-edge" transform="matrix(1 0 0 1 -46 -38)">订单路由层</text></g></g><g><path fill="none" stroke="#000000" paint-order="fill stroke markers" d=" M 418 74 L 417 475" stroke-miterlimit="10" stroke-dasharray="6,4"/></g><g><path fill="none" stroke="#000000" paint-order="fill stroke markers" d=" M 194 234 L 52 233" stroke-miterlimit="10" stroke-dasharray=""/></g><g><path fill="#000000" stroke="none" paint-order="stroke fill markers" d=" M 62.19206662271162 228.86215298032806 L 52 233 L 62.132779110347016 237.28097973610193"/></g><g><path fill="none" stroke="#000000" paint-order="fill stroke markers" d=" M 62.19206662271162 228.86215298032806 L 52 233 L 62.132779110347016 237.28097973610193 L 62.19206662271162 228.86215298032806" stroke-miterlimit="10" stroke-dasharray=""/></g><g><g><path fill="none" stroke="none"/><text fill="#000000" stroke="none" font-family="Arial" font-size="13px" font-style="normal" font-weight="normal" text-decoration="undefined" x="125" y="253" text-anchor="start" dominant-baseline="text-before-edge" transform="matrix(1 0 0 1 -46 -38)">推送新订单</text></g></g><g><path fill="none" stroke="#000000" paint-order="fill stroke markers" d=" M 42 266 L 407 266" stroke-miterlimit="10" stroke-dasharray=""/></g><g><path fill="#000000" stroke="none" paint-order="stroke fill markers" d=" M 396.83732514237585 270.209517756016 L 407 266 L 396.83732514237585 261.790482243984"/></g><g><path fill="none" stroke="#000000" paint-order="fill stroke markers" d=" M 396.83732514237585 270.209517756016 L 407 266 L 396.83732514237585 261.790482243984 L 396.83732514237585 270.209517756016" stroke-miterlimit="10" stroke-dasharray=""/></g><g><g><path fill="none" stroke="none"/><text fill="#000000" stroke="none" font-family="Arial" font-size="13px" font-style="normal" font-weight="normal" text-decoration="undefined" x="123" y="285" text-anchor="start" dominant-baseline="text-before-edge" transform="matrix(1 0 0 1 -46 -38)">手动接单设为制作中</text></g></g><g><path fill="none" stroke="#000000" paint-order="fill stroke markers" d=" M 402 322 L 402 322" stroke-miterlimit="10" stroke-dasharray=""/></g><g><path fill="none" stroke="#000000" paint-order="fill stroke markers" d=" M 402 298 L 52 298" stroke-miterlimit="10" stroke-dasharray="6,4"/></g><g><path fill="#000000" stroke="none" paint-order="stroke fill markers" d=" M 62.162674857624154 293.790482243984 L 52 298 L 62.162674857624154 302.209517756016"/></g><g><path fill="none" stroke="#000000" paint-order="fill stroke markers" d=" M 62.162674857624154 293.790482243984 L 52 298 L 62.162674857624154 302.209517756016 L 62.162674857624154 293.790482243984" stroke-miterlimit="10" stroke-dasharray=""/></g><g><g><path fill="none" stroke="none"/><text fill="#000000" stroke="none" font-family="Arial" font-size="13px" font-style="normal" font-weight="normal" text-decoration="undefined" x="139" y="322" text-anchor="start" dominant-baseline="text-before-edge" transform="matrix(1 0 0 1 -46 -38)">前段回显：制作中</text></g></g><g><path fill="none" stroke="#000000" paint-order="fill stroke markers" d=" M 42 330 L 406 330" stroke-miterlimit="10" stroke-dasharray=""/></g><g><path fill="#000000" stroke="none" paint-order="stroke fill markers" d=" M 395.83732514237585 334.209517756016 L 406 330 L 395.83732514237585 325.790482243984"/></g><g><path fill="none" stroke="#000000" paint-order="fill stroke markers" d=" M 395.83732514237585 334.209517756016 L 406 330 L 395.83732514237585 325.790482243984 L 395.83732514237585 334.209517756016" stroke-miterlimit="10" stroke-dasharray=""/></g><g><g><path fill="none" stroke="none"/><text fill="#000000" stroke="none" font-family="Arial" font-size="13px" font-style="normal" font-weight="normal" text-decoration="undefined" x="109" y="349" text-anchor="start" dominant-baseline="text-before-edge" transform="matrix(1 0 0 1 -46 -38)">确认出餐，设为已完成</text></g></g><g><path fill="none" stroke="#000000" paint-order="fill stroke markers" d=" M 402 378 L 55 380" stroke-miterlimit="10" stroke-dasharray="6,4"/></g><g><path fill="#000000" stroke="none" paint-order="stroke fill markers" d=" M 65.13824411206107 375.73197864060415 L 55 380 L 65.18676800644079 384.15087431548517"/></g><g><path fill="none" stroke="#000000" paint-order="fill stroke markers" d=" M 65.13824411206107 375.73197864060415 L 55 380 L 65.18676800644079 384.15087431548517 L 65.13824411206107 375.73197864060415" stroke-miterlimit="10" stroke-dasharray=""/></g><g><g><path fill="none" stroke="none"/><text fill="#000000" stroke="none" font-family="Arial" font-size="13px" font-style="normal" font-weight="normal" text-decoration="undefined" x="138" y="401" text-anchor="start" dominant-baseline="text-before-edge" transform="matrix(1 0 0 1 -46 -38)">前段回复，已完成</text></g></g><g><rect fill="#ffffff" stroke="none" x="696" y="528" width="88" height="25" transform="matrix(1 0 0 1 -46 -38)"/></g><g><path fill="none" stroke="#000000" paint-order="fill stroke markers" d=" M 650 490 L 738 490 L 738 515 L 650 515 L 650 490 Z Z" stroke-miterlimit="10" stroke-dasharray=""/></g><g><g><path fill="none" stroke="none"/><text fill="#000000" stroke="none" font-family="Arial" font-size="13px" font-style="normal" font-weight="normal" text-decoration="undefined" x="701" y="533" text-anchor="start" dominant-baseline="text-before-edge" transform="matrix(1 0 0 1 -46 -38)">订单业务服务</text></g></g><g><path fill="none" stroke="#000000" paint-order="fill stroke markers" d=" M 690 66 L 687 484" stroke-miterlimit="10" stroke-dasharray="6,4"/></g><g><path fill="none" stroke="#000000" paint-order="fill stroke markers" d=" M 418 186 L 686 186" stroke-miterlimit="10" stroke-dasharray=""/></g><g><path fill="#000000" stroke="none" paint-order="stroke fill markers" d=" M 675.8373251423759 190.209517756016 L 686 186 L 675.8373251423758 181.790482243984"/></g><g><path fill="none" stroke="#000000" paint-order="fill stroke markers" d=" M 675.8373251423759 190.209517756016 L 686 186 L 675.8373251423758 181.790482243984 L 675.8373251423759 190.209517756016" stroke-miterlimit="10" stroke-dasharray=""/></g><g><g><path fill="none" stroke="none"/><text fill="#000000" stroke="none" font-family="Arial" font-size="13px" font-style="normal" font-weight="normal" text-decoration="undefined" x="525" y="205" text-anchor="start" dominant-baseline="text-before-edge" transform="matrix(1 0 0 1 -46 -38)">请求更新订单状态：制作中</text></g></g><g><path fill="none" stroke="#000000" paint-order="fill stroke markers" d=" M 682 218 L 425 218" stroke-miterlimit="10" stroke-dasharray="6,4"/></g><g><path fill="#000000" stroke="none" paint-order="stroke fill markers" d=" M 435.16267485762415 213.790482243984 L 425 218 L 435.16267485762415 222.209517756016"/></g><g><path fill="none" stroke="#000000" paint-order="fill stroke markers" d=" M 435.16267485762415 213.790482243984 L 425 218 L 435.16267485762415 222.209517756016 L 435.16267485762415 213.790482243984" stroke-miterlimit="10" stroke-dasharray=""/></g><g><g><path fill="none" stroke="none"/><text fill="#000000" stroke="none" font-family="Arial" font-size="13px" font-style="normal" font-weight="normal" text-decoration="undefined" x="525" y="237" text-anchor="start" dominant-baseline="text-before-edge" transform="matrix(1 0 0 1 -46 -38)">状态变更成功</text></g></g><g><path fill="none" stroke="#000000" paint-order="fill stroke markers" d=" M 418 258 L 681 258" stroke-miterlimit="10" stroke-dasharray=""/></g><g><path fill="#000000" stroke="none" paint-order="stroke fill markers" d=" M 670.8373251423759 262.209517756016 L 681 258 L 670.8373251423758 253.790482243984"/></g><g><path fill="none" stroke="#000000" paint-order="fill stroke markers" d=" M 670.8373251423759 262.209517756016 L 681 258 L 670.8373251423758 253.790482243984 L 670.8373251423759 262.209517756016" stroke-miterlimit="10" stroke-dasharray=""/></g><g><g><path fill="none" stroke="none"/><text fill="#000000" stroke="none" font-family="Arial" font-size="13px" font-style="normal" font-weight="normal" text-decoration="undefined" x="526" y="281" text-anchor="start" dominant-baseline="text-before-edge" transform="matrix(1 0 0 1 -46 -38)">请求更新订单状态：已完成</text></g></g><g><path fill="none" stroke="#000000" paint-order="fill stroke markers" d=" M 674 322 L 427 322" stroke-miterlimit="10" stroke-dasharray="6,4"/></g><g><path fill="#000000" stroke="none" paint-order="stroke fill markers" d=" M 437.16267485762415 317.790482243984 L 427 322 L 437.16267485762415 326.209517756016"/></g><g><path fill="none" stroke="#000000" paint-order="fill stroke markers" d=" M 437.16267485762415 317.790482243984 L 427 322 L 437.16267485762415 326.209517756016 L 437.16267485762415 317.790482243984" stroke-miterlimit="10" stroke-dasharray=""/></g><g><g><path fill="none" stroke="none"/><text fill="#000000" stroke="none" font-family="Arial" font-size="13px" font-style="normal" font-weight="normal" text-decoration="undefined" x="527" y="341" text-anchor="start" dominant-baseline="text-before-edge" transform="matrix(1 0 0 1 -46 -38)">状态变更成功</text></g></g><g><rect fill="#ffffff" stroke="none" x="928" y="73" width="60" height="25" transform="matrix(1 0 0 1 -46 -38)"/></g><g><path fill="none" stroke="#000000" paint-order="fill stroke markers" d=" M 882 35 L 942 35 L 942 60 L 882 60 L 882 35 Z Z" stroke-miterlimit="10" stroke-dasharray=""/></g><g><g><path fill="none" stroke="none"/><text fill="#000000" stroke="none" font-family="Arial" font-size="13px" font-style="normal" font-weight="normal" text-decoration="undefined" x="933" y="78" text-anchor="start" dominant-baseline="text-before-edge" transform="matrix(1 0 0 1 -46 -38)">数据库</text></g></g><g><rect fill="#ffffff" stroke="none" x="928" y="528" width="60" height="25" transform="matrix(1 0 0 1 -46 -38)"/></g><g><path fill="none" stroke="#000000" paint-order="fill stroke markers" d=" M 882 490 L 942 490 L 942 515 L 882 515 L 882 490 Z Z" stroke-miterlimit="10" stroke-dasharray=""/></g><g><g><path fill="none" stroke="none"/><text fill="#000000" stroke="none" font-family="Arial" font-size="13px" font-style="normal" font-weight="normal" text-decoration="undefined" x="933" y="533" text-anchor="start" dominant-baseline="text-before-edge" transform="matrix(1 0 0 1 -46 -38)">数据库</text></g></g><g><rect fill="#ffffff" stroke="none" x="1144" y="80" width="88" height="25" transform="matrix(1 0 0 1 -46 -38)"/></g><g><path fill="none" stroke="#000000" paint-order="fill stroke markers" d=" M 1098 42 L 1186 42 L 1186 67 L 1098 67 L 1098 42 Z Z" stroke-miterlimit="10" stroke-dasharray=""/></g><g><g><path fill="none" stroke="none"/><text fill="#000000" stroke="none" font-family="Arial" font-size="13px" font-style="normal" font-weight="normal" text-decoration="undefined" x="1149" y="85" text-anchor="start" dominant-baseline="text-before-edge" transform="matrix(1 0 0 1 -46 -38)">消息通知服务</text></g></g><g><rect fill="#ffffff" stroke="none" x="1136" y="544" width="88" height="25" transform="matrix(1 0 0 1 -46 -38)"/></g><g><path fill="none" stroke="#000000" paint-order="fill stroke markers" d=" M 1090 506 L 1178 506 L 1178 531 L 1090 531 L 1090 506 Z Z" stroke-miterlimit="10" stroke-dasharray=""/></g><g><g><path fill="none" stroke="none"/><text fill="#000000" stroke="none" font-family="Arial" font-size="13px" font-style="normal" font-weight="normal" text-decoration="undefined" x="1141" y="549" text-anchor="start" dominant-baseline="text-before-edge" transform="matrix(1 0 0 1 -46 -38)">消息通知服务</text></g></g><g><path fill="none" stroke="#000000" paint-order="fill stroke markers" d=" M 1138 66 L 1134 499" stroke-miterlimit="10" stroke-dasharray="6,4"/></g><g><path fill="none" stroke="#000000" paint-order="fill stroke markers" d=" M 914 66 L 914 487" stroke-miterlimit="10" stroke-dasharray="6,4"/></g><g><path fill="none" stroke="#000000" paint-order="fill stroke markers" d=" M 690 146 L 904 147" stroke-miterlimit="10" stroke-dasharray=""/></g><g><path fill="#000000" stroke="none" paint-order="stroke fill markers" d=" M 893.8177656675218 151.16198318094914 L 904 147 L 893.8571065254407 142.7430395863077"/></g><g><path fill="none" stroke="#000000" paint-order="fill stroke markers" d=" M 893.8177656675218 151.16198318094914 L 904 147 L 893.8571065254407 142.7430395863077 L 893.8177656675218 151.16198318094914" stroke-miterlimit="10" stroke-dasharray=""/></g><g><g><path fill="none" stroke="none"/><text fill="#000000" stroke="none" font-family="Arial" font-size="13px" font-style="normal" font-weight="normal" text-decoration="undefined" x="773" y="163" text-anchor="start" dominant-baseline="text-before-edge" transform="matrix(1 0 0 1 -46 -38)">更新订单状态+接单时间</text></g></g><g><path fill="none" stroke="#000000" paint-order="fill stroke markers" d=" M 898 178 L 697 177" stroke-miterlimit="10" stroke-dasharray="6,4"/></g><g><path fill="#000000" stroke="none" paint-order="stroke fill markers" d=" M 707.1834917026184 172.84109428542786 L 697 177 L 707.141606472168 181.260025605989"/></g><g><path fill="none" stroke="#000000" paint-order="fill stroke markers" d=" M 707.1834917026184 172.84109428542786 L 697 177 L 707.141606472168 181.260025605989 L 707.1834917026184 172.84109428542786" stroke-miterlimit="10" stroke-dasharray=""/></g><g><g><path fill="none" stroke="none"/><text fill="#000000" stroke="none" font-family="Arial" font-size="13px" font-style="normal" font-weight="normal" text-decoration="undefined" x="788" y="200" text-anchor="start" dominant-baseline="text-before-edge" transform="matrix(1 0 0 1 -46 -38)">数据库更新成功</text></g></g><g><path fill="none" stroke="#000000" paint-order="fill stroke markers" d=" M 698 274 L 899 274" stroke-miterlimit="10" stroke-dasharray=""/></g><g><path fill="#000000" stroke="none" paint-order="stroke fill markers" d=" M 888.8373251423759 278.209517756016 L 899 274 L 888.8373251423758 269.790482243984"/></g><g><path fill="none" stroke="#000000" paint-order="fill stroke markers" d=" M 888.8373251423759 278.209517756016 L 899 274 L 888.8373251423758 269.790482243984 L 888.8373251423759 278.209517756016" stroke-miterlimit="10" stroke-dasharray=""/></g><g><g><path fill="none" stroke="none"/><text fill="#000000" stroke="none" font-family="Arial" font-size="13px" font-style="normal" font-weight="normal" text-decoration="undefined" x="773" y="285" text-anchor="start" dominant-baseline="text-before-edge" transform="matrix(1 0 0 1 -46 -38)">更新订单状态+接单时间</text></g></g><g><path fill="none" stroke="#000000" paint-order="fill stroke markers" d=" M 898 322 L 699 320" stroke-miterlimit="10" stroke-dasharray="6,4"/></g><g><path fill="#000000" stroke="none" paint-order="stroke fill markers" d=" M 709.2044662176856 315.8928271022379 L 699 320 L 709.1198570684278 324.3114374534014"/></g><g><path fill="none" stroke="#000000" paint-order="fill stroke markers" d=" M 709.2044662176856 315.8928271022379 L 699 320 L 709.1198570684278 324.3114374534014 L 709.2044662176856 315.8928271022379" stroke-miterlimit="10" stroke-dasharray=""/></g><g><g><path fill="none" stroke="none"/><text fill="#000000" stroke="none" font-family="Arial" font-size="13px" font-style="normal" font-weight="normal" text-decoration="undefined" x="785" y="341" text-anchor="start" dominant-baseline="text-before-edge" transform="matrix(1 0 0 1 -46 -38)">数据库更新成功</text></g></g><g><path fill="none" stroke="#000000" paint-order="fill stroke markers" d=" M 690 394 L 1124 397" stroke-miterlimit="10" stroke-dasharray=""/></g><g><path fill="#000000" stroke="none" paint-order="stroke fill markers" d=" M 1113.8084705755782 401.1391699640318 L 1124 397 L 1113.8666652832785 392.72033558337966"/></g><g><path fill="none" stroke="#000000" paint-order="fill stroke markers" d=" M 1113.8084705755782 401.1391699640318 L 1124 397 L 1113.8666652832785 392.72033558337966 L 1113.8084705755782 401.1391699640318" stroke-miterlimit="10" stroke-dasharray=""/></g><g><g><path fill="none" stroke="none"/><text fill="#000000" stroke="none" font-family="Arial" font-size="13px" font-style="normal" font-weight="normal" text-decoration="undefined" x="797" y="418" text-anchor="start" dominant-baseline="text-before-edge" transform="matrix(1 0 0 1 -46 -38)">触发通知和打印任务</text></g></g><g><path fill="none" stroke="#000000" paint-order="fill stroke markers" d=" M 1344 54 C 1344 44.611158399999994 1351.6111584 37 1361 37 C 1370.3888416 37 1378 44.611158399999994 1378 54 C 1378 63.388841600000006 1370.3888416 71 1361 71 C 1351.6111584 71 1344 63.388841600000006 1344 54 Z" stroke-miterlimit="10" stroke-dasharray=""/></g><g><path fill="none" stroke="#000000" paint-order="fill stroke markers" d=" M 1344 71 L 1378 71" stroke-miterlimit="10" stroke-dasharray=""/></g><g><g><path fill="none" stroke="none"/><text fill="#000000" stroke="none" font-family="Arial" font-size="13px" font-style="normal" font-weight="bold" text-decoration="undefined" x="1407.5" y="125.5" text-anchor="middle" dominant-baseline="central" transform="matrix(1 0 0 1 -46 -38)">用户前端</text></g></g><g><path fill="none" stroke="#000000" paint-order="fill stroke markers" d=" M 1336 486 C 1336 476.6111584 1343.6111584 469 1353 469 C 1362.3888416 469 1370 476.6111584 1370 486 C 1370 495.3888416 1362.3888416 503 1353 503 C 1343.6111584 503 1336 495.3888416 1336 486 Z" stroke-miterlimit="10" stroke-dasharray=""/></g><g><path fill="none" stroke="#000000" paint-order="fill stroke markers" d=" M 1336 503 L 1370 503" stroke-miterlimit="10" stroke-dasharray=""/></g><g><g><path fill="none" stroke="none"/><text fill="#000000" stroke="none" font-family="Arial" font-size="13px" font-style="normal" font-weight="bold" text-decoration="undefined" x="1399.5" y="557.5" text-anchor="middle" dominant-baseline="central" transform="matrix(1 0 0 1 -46 -38)">用户前端</text></g></g><g><path fill="none" stroke="#000000" paint-order="fill stroke markers" d=" M 1354 98 L 1359 464" stroke-miterlimit="10" stroke-dasharray="6,4"/></g><g><path fill="none" stroke="#000000" paint-order="fill stroke markers" d=" M 1550.5 70 C 1550.5 60.611158399999994 1558.1111584 53 1567.5 53 C 1576.8888416 53 1584.5 60.611158399999994 1584.5 70 C 1584.5 79.3888416 1576.8888416 87 1567.5 87 C 1558.1111584 87 1550.5 79.3888416 1550.5 70 Z" stroke-miterlimit="10" stroke-dasharray=""/></g><g><path fill="none" stroke="#000000" paint-order="fill stroke markers" d=" M 1550.5 87 L 1584.5 87" stroke-miterlimit="10" stroke-dasharray=""/></g><g><g><path fill="none" stroke="none"/><text fill="#000000" stroke="none" font-family="Arial" font-size="13px" font-style="normal" font-weight="bold" text-decoration="undefined" x="1614" y="141.5" text-anchor="middle" dominant-baseline="central" transform="matrix(1 0 0 1 -46 -38)">小票打印机</text></g></g><g><path fill="none" stroke="#000000" paint-order="fill stroke markers" d=" M 1542.5 478 C 1542.5 468.6111584 1550.1111584 461 1559.5 461 C 1568.8888416 461 1576.5 468.6111584 1576.5 478 C 1576.5 487.3888416 1568.8888416 495 1559.5 495 C 1550.1111584 495 1542.5 487.3888416 1542.5 478 Z" stroke-miterlimit="10" stroke-dasharray=""/></g><g><path fill="none" stroke="#000000" paint-order="fill stroke markers" d=" M 1542.5 495 L 1576.5 495" stroke-miterlimit="10" stroke-dasharray=""/></g><g><g><path fill="none" stroke="none"/><text fill="#000000" stroke="none" font-family="Arial" font-size="13px" font-style="normal" font-weight="bold" text-decoration="undefined" x="1606" y="549.5" text-anchor="middle" dominant-baseline="central" transform="matrix(1 0 0 1 -46 -38)">小票打印机</text></g></g><g><path fill="none" stroke="#000000" paint-order="fill stroke markers" d=" M 1562 106 L 1560 449" stroke-miterlimit="10" stroke-dasharray="6,4"/></g><g><path fill="none" stroke="#000000" paint-order="fill stroke markers" d=" M 1138 282 L 1351 282" stroke-miterlimit="10" stroke-dasharray=""/></g><g><path fill="#000000" stroke="none" paint-order="stroke fill markers" d=" M 1340.837325142376 286.209517756016 L 1351 282 L 1340.837325142376 277.790482243984"/></g><g><path fill="none" stroke="#000000" paint-order="fill stroke markers" d=" M 1340.837325142376 286.209517756016 L 1351 282 L 1340.837325142376 277.790482243984 L 1340.837325142376 286.209517756016" stroke-miterlimit="10" stroke-dasharray=""/></g><g><g><path fill="none" stroke="none"/><text fill="#000000" stroke="none" font-family="Arial" font-size="13px" font-style="normal" font-weight="normal" text-decoration="undefined" x="1237" y="293" text-anchor="start" dominant-baseline="text-before-edge" transform="matrix(1 0 0 1 -46 -38)">推送订单完成通知</text></g></g><g><path fill="none" stroke="#000000" paint-order="fill stroke markers" d=" M 1138 362 L 1551 362" stroke-miterlimit="10" stroke-dasharray=""/></g><g><path fill="#000000" stroke="none" paint-order="stroke fill markers" d=" M 1540.837325142376 366.209517756016 L 1551 362 L 1540.837325142376 357.790482243984"/></g><g><path fill="none" stroke="#000000" paint-order="fill stroke markers" d=" M 1540.837325142376 366.209517756016 L 1551 362 L 1540.837325142376 357.790482243984 L 1540.837325142376 366.209517756016" stroke-miterlimit="10" stroke-dasharray=""/></g><g><g><path fill="none" stroke="none"/><text fill="#000000" stroke="none" font-family="Arial" font-size="13px" font-style="normal" font-weight="normal" text-decoration="undefined" x="1233" y="381" text-anchor="start" dominant-baseline="text-before-edge" transform="matrix(1 0 0 1 -46 -38)">打印出餐/结算票据</text></g></g></g></svg>