<svg version="1.1" xmlns="http://www.w3.org/2000/svg" xmlns:xlink="http://www.w3.org/1999/xlink" width="683.591796875" height="586"><defs/><g><g><rect fill="#C0C0C0" stroke="none" x="543" y="63" width="121.591796875" height="101" transform="matrix(1 0 0 1 -278 -46)" fill-opacity="0.2"/></g><g><rect fill="#ffffff" stroke="none" x="536" y="56" width="121.591796875" height="101" transform="matrix(1 0 0 1 -278 -46)"/></g><g><path fill="none" stroke="#000000" paint-order="fill stroke markers" d=" M 258 10 L 379.591796875 10 L 379.591796875 111 L 258 111 L 258 10 Z Z" stroke-miterlimit="10" stroke-dasharray=""/></g><g><path fill="none" stroke="#000000" paint-order="fill stroke markers" d=" M 258 35 L 379.591796875 35" stroke-miterlimit="10" stroke-dasharray=""/></g><g><path fill="none" stroke="#000000" paint-order="fill stroke markers" d=" M 258 88 L 379.591796875 88" stroke-miterlimit="10" stroke-dasharray=""/></g><g><g><path fill="none" stroke="none"/><text fill="#000000" stroke="none" font-family="Arial" font-size="13px" font-style="normal" font-weight="bold" text-decoration="undefined" x="597.2958984375" y="69.5" text-anchor="middle" dominant-baseline="central" transform="matrix(1 0 0 1 -278 -46)">菜品分类</text></g></g><g><g><path fill="none" stroke="none"/><text fill="#000000" stroke="none" font-family="Arial" font-size="13px" font-style="normal" font-weight="normal" text-decoration="undefined" x="541" y="92.5" text-anchor="start" dominant-baseline="central" transform="matrix(1 0 0 1 -278 -46)">+主键ID：长整型</text></g></g><g><g><path fill="none" stroke="none"/><text fill="#000000" stroke="none" font-family="Arial" font-size="13px" font-style="normal" font-weight="normal" text-decoration="undefined" x="541" y="107.5" text-anchor="start" dominant-baseline="central" transform="matrix(1 0 0 1 -278 -46)">+分类名称：字符串</text></g></g><g><g><path fill="none" stroke="none"/><text fill="#000000" stroke="none" font-family="Arial" font-size="13px" font-style="normal" font-weight="normal" text-decoration="undefined" x="541" y="122.5" text-anchor="start" dominant-baseline="central" transform="matrix(1 0 0 1 -278 -46)">+排序序号：整型</text></g></g><g><rect fill="#C0C0C0" stroke="none" x="543" y="279" width="121.591796875" height="118" transform="matrix(1 0 0 1 -278 -46)" fill-opacity="0.2"/></g><g><rect fill="#ffffff" stroke="none" x="536" y="272" width="121.591796875" height="118" transform="matrix(1 0 0 1 -278 -46)"/></g><g><path fill="none" stroke="#000000" paint-order="fill stroke markers" d=" M 258 226 L 379.591796875 226 L 379.591796875 344 L 258 344 L 258 226 Z Z" stroke-miterlimit="10" stroke-dasharray=""/></g><g><path fill="none" stroke="#000000" paint-order="fill stroke markers" d=" M 258 251 L 379.591796875 251" stroke-miterlimit="10" stroke-dasharray=""/></g><g><path fill="none" stroke="#000000" paint-order="fill stroke markers" d=" M 258 334 L 379.591796875 334" stroke-miterlimit="10" stroke-dasharray=""/></g><g><g><path fill="none" stroke="none"/><text fill="#000000" stroke="none" font-family="Arial" font-size="13px" font-style="normal" font-weight="bold" text-decoration="undefined" x="597.2958984375" y="285.5" text-anchor="middle" dominant-baseline="central" transform="matrix(1 0 0 1 -278 -46)">菜品</text></g></g><g><g><path fill="none" stroke="none"/><text fill="#000000" stroke="none" font-family="Arial" font-size="13px" font-style="normal" font-weight="normal" text-decoration="undefined" x="541" y="308.5" text-anchor="start" dominant-baseline="central" transform="matrix(1 0 0 1 -278 -46)">+主键ID：长整型</text></g></g><g><g><path fill="none" stroke="none"/><text fill="#000000" stroke="none" font-family="Arial" font-size="13px" font-style="normal" font-weight="normal" text-decoration="undefined" x="541" y="323.5" text-anchor="start" dominant-baseline="central" transform="matrix(1 0 0 1 -278 -46)">+菜品名称：字符串</text></g></g><g><g><path fill="none" stroke="none"/><text fill="#000000" stroke="none" font-family="Arial" font-size="13px" font-style="normal" font-weight="normal" text-decoration="undefined" x="541" y="338.5" text-anchor="start" dominant-baseline="central" transform="matrix(1 0 0 1 -278 -46)">+售价：金额</text></g></g><g><g><path fill="none" stroke="none"/><text fill="#000000" stroke="none" font-family="Arial" font-size="13px" font-style="normal" font-weight="normal" text-decoration="undefined" x="541" y="353.5" text-anchor="start" dominant-baseline="central" transform="matrix(1 0 0 1 -278 -46)">+菜品描述：字符串</text></g></g><g><g><path fill="none" stroke="none"/><text fill="#000000" stroke="none" font-family="Arial" font-size="13px" font-style="normal" font-weight="normal" text-decoration="undefined" x="541" y="368.5" text-anchor="start" dominant-baseline="central" transform="matrix(1 0 0 1 -278 -46)">+状态：整型</text></g></g><g><path fill="none" stroke="#000000" paint-order="fill stroke markers" d=" M 318 112 L 318 225" stroke-miterlimit="10" stroke-dasharray=""/></g><g><path fill="#000000" stroke="none" paint-order="stroke fill markers" d=" M 313.790482243984 214.83732514237585 L 318 225 L 322.209517756016 214.83732514237585 L 318 203"/></g><g><path fill="none" stroke="#000000" paint-order="fill stroke markers" d=" M 313.790482243984 214.83732514237585 L 318 225 L 322.209517756016 214.83732514237585 L 318 203 L 313.790482243984 214.83732514237585" stroke-miterlimit="10" stroke-dasharray=""/></g><g><rect fill="#C0C0C0" stroke="none" x="295" y="511" width="121.591796875" height="88" transform="matrix(1 0 0 1 -278 -46)" fill-opacity="0.2"/></g><g><rect fill="#ffffff" stroke="none" x="288" y="504" width="121.591796875" height="88" transform="matrix(1 0 0 1 -278 -46)"/></g><g><path fill="none" stroke="#000000" paint-order="fill stroke markers" d=" M 10 458 L 131.591796875 458 L 131.591796875 546 L 10 546 L 10 458 Z Z" stroke-miterlimit="10" stroke-dasharray=""/></g><g><path fill="none" stroke="#000000" paint-order="fill stroke markers" d=" M 10 483 L 131.591796875 483" stroke-miterlimit="10" stroke-dasharray=""/></g><g><path fill="none" stroke="#000000" paint-order="fill stroke markers" d=" M 10 536 L 131.591796875 536" stroke-miterlimit="10" stroke-dasharray=""/></g><g><g><path fill="none" stroke="none"/><text fill="#000000" stroke="none" font-family="Arial" font-size="13px" font-style="normal" font-weight="bold" text-decoration="undefined" x="349.2958984375" y="517.5" text-anchor="middle" dominant-baseline="central" transform="matrix(1 0 0 1 -278 -46)">菜品图片</text></g></g><g><g><path fill="none" stroke="none"/><text fill="#000000" stroke="none" font-family="Arial" font-size="13px" font-style="normal" font-weight="normal" text-decoration="undefined" x="293" y="540.5" text-anchor="start" dominant-baseline="central" transform="matrix(1 0 0 1 -278 -46)">+主键ID：长整型</text></g></g><g><g><path fill="none" stroke="none"/><text fill="#000000" stroke="none" font-family="Arial" font-size="13px" font-style="normal" font-weight="normal" text-decoration="undefined" x="293" y="555.5" text-anchor="start" dominant-baseline="central" transform="matrix(1 0 0 1 -278 -46)">+图片地址：字符串</text></g></g><g><g><path fill="none" stroke="none"/><text fill="#000000" stroke="none" font-family="Arial" font-size="13px" font-style="normal" font-weight="normal" text-decoration="undefined" x="293" y="570.5" text-anchor="start" dominant-baseline="central" transform="matrix(1 0 0 1 -278 -46)">+排序序号：整型</text></g></g><g><rect fill="#C0C0C0" stroke="none" x="543" y="511" width="108.591796875" height="73" transform="matrix(1 0 0 1 -278 -46)" fill-opacity="0.2"/></g><g><rect fill="#ffffff" stroke="none" x="536" y="504" width="108.591796875" height="73" transform="matrix(1 0 0 1 -278 -46)"/></g><g><path fill="none" stroke="#000000" paint-order="fill stroke markers" d=" M 258 458 L 366.591796875 458 L 366.591796875 531 L 258 531 L 258 458 Z Z" stroke-miterlimit="10" stroke-dasharray=""/></g><g><path fill="none" stroke="#000000" paint-order="fill stroke markers" d=" M 258 483 L 366.591796875 483" stroke-miterlimit="10" stroke-dasharray=""/></g><g><path fill="none" stroke="#000000" paint-order="fill stroke markers" d=" M 258 521 L 366.591796875 521" stroke-miterlimit="10" stroke-dasharray=""/></g><g><g><path fill="none" stroke="none"/><text fill="#000000" stroke="none" font-family="Arial" font-size="13px" font-style="normal" font-weight="bold" text-decoration="undefined" x="590.7958984375" y="517.5" text-anchor="middle" dominant-baseline="central" transform="matrix(1 0 0 1 -278 -46)">标签</text></g></g><g><g><path fill="none" stroke="none"/><text fill="#000000" stroke="none" font-family="Arial" font-size="13px" font-style="normal" font-weight="normal" text-decoration="undefined" x="541" y="540.5" text-anchor="start" dominant-baseline="central" transform="matrix(1 0 0 1 -278 -46)">+主键ID：长整型</text></g></g><g><g><path fill="none" stroke="none"/><text fill="#000000" stroke="none" font-family="Arial" font-size="13px" font-style="normal" font-weight="normal" text-decoration="undefined" x="541" y="555.5" text-anchor="start" dominant-baseline="central" transform="matrix(1 0 0 1 -278 -46)">+字符串</text></g></g><g><rect fill="#C0C0C0" stroke="none" x="823" y="511" width="134.591796875" height="118" transform="matrix(1 0 0 1 -278 -46)" fill-opacity="0.2"/></g><g><rect fill="#ffffff" stroke="none" x="816" y="504" width="134.591796875" height="118" transform="matrix(1 0 0 1 -278 -46)"/></g><g><path fill="none" stroke="#000000" paint-order="fill stroke markers" d=" M 538 458 L 672.591796875 458 L 672.591796875 576 L 538 576 L 538 458 Z Z" stroke-miterlimit="10" stroke-dasharray=""/></g><g><path fill="none" stroke="#000000" paint-order="fill stroke markers" d=" M 538 483 L 672.591796875 483" stroke-miterlimit="10" stroke-dasharray=""/></g><g><path fill="none" stroke="#000000" paint-order="fill stroke markers" d=" M 538 566 L 672.591796875 566" stroke-miterlimit="10" stroke-dasharray=""/></g><g><g><path fill="none" stroke="none"/><text fill="#000000" stroke="none" font-family="Arial" font-size="13px" font-style="normal" font-weight="bold" text-decoration="undefined" x="883.7958984375" y="517.5" text-anchor="middle" dominant-baseline="central" transform="matrix(1 0 0 1 -278 -46)">营养成分</text></g></g><g><g><path fill="none" stroke="none"/><text fill="#000000" stroke="none" font-family="Arial" font-size="13px" font-style="normal" font-weight="normal" text-decoration="undefined" x="821" y="540.5" text-anchor="start" dominant-baseline="central" transform="matrix(1 0 0 1 -278 -46)">+主键ID：长整型</text></g></g><g><g><path fill="none" stroke="none"/><text fill="#000000" stroke="none" font-family="Arial" font-size="13px" font-style="normal" font-weight="normal" text-decoration="undefined" x="821" y="555.5" text-anchor="start" dominant-baseline="central" transform="matrix(1 0 0 1 -278 -46)">+卡路里：模型</text></g></g><g><g><path fill="none" stroke="none"/><text fill="#000000" stroke="none" font-family="Arial" font-size="13px" font-style="normal" font-weight="normal" text-decoration="undefined" x="821" y="570.5" text-anchor="start" dominant-baseline="central" transform="matrix(1 0 0 1 -278 -46)">+蛋白质：浮点型</text></g></g><g><g><path fill="none" stroke="none"/><text fill="#000000" stroke="none" font-family="Arial" font-size="13px" font-style="normal" font-weight="normal" text-decoration="undefined" x="821" y="585.5" text-anchor="start" dominant-baseline="central" transform="matrix(1 0 0 1 -278 -46)">+脂肪：浮点型</text></g></g><g><g><path fill="none" stroke="none"/><text fill="#000000" stroke="none" font-family="Arial" font-size="13px" font-style="normal" font-weight="normal" text-decoration="undefined" x="821" y="600.5" text-anchor="start" dominant-baseline="central" transform="matrix(1 0 0 1 -278 -46)">+碳水化合物：浮点型</text></g></g><g><path fill="none" stroke="#000000" paint-order="fill stroke markers" d=" M 121 457 L 257 338" stroke-miterlimit="10" stroke-dasharray=""/></g><g><path fill="#000000" stroke="none" paint-order="stroke fill markers" d=" M 252.12379458550936 347.86015318114744 L 257 338 L 246.57982090702762 341.5241832628826 L 240.44331271644865 352.4871013731074"/></g><g><path fill="none" stroke="#000000" paint-order="fill stroke markers" d=" M 252.12379458550936 347.86015318114744 L 257 338 L 246.57982090702762 341.5241832628826 L 240.44331271644865 352.4871013731074 L 252.12379458550936 347.86015318114744" stroke-miterlimit="10" stroke-dasharray=""/></g><g><path fill="none" stroke="#000000" paint-order="fill stroke markers" d=" M 316 345 L 313 457" stroke-miterlimit="10" stroke-dasharray=""/></g><g><path fill="#FFFFFF" stroke="none" paint-order="stroke fill markers" d=" M 309.06410844682205 446.7282543994887 L 313 457 L 317.4801253614777 446.9536834239884 L 313.5890744292391 435.0078879750758"/></g><g><path fill="none" stroke="#000000" paint-order="fill stroke markers" d=" M 309.06410844682205 446.7282543994887 L 313 457 L 317.4801253614777 446.9536834239884 L 313.5890744292391 435.0078879750758 L 309.06410844682205 446.7282543994887" stroke-miterlimit="10" stroke-dasharray=""/></g><g><path fill="none" stroke="#000000" paint-order="fill stroke markers" d=" M 537 462 L 381 336" stroke-miterlimit="10" stroke-dasharray=""/></g><g><path fill="#FFFFFF" stroke="none" paint-order="stroke fill markers" d=" M 391.5509594818159 339.11082850910805 L 381 336 L 386.26096706371777 345.6603429315153 L 398.1147059644819 349.8234163559277"/></g><g><path fill="none" stroke="#000000" paint-order="fill stroke markers" d=" M 391.5509594818159 339.11082850910805 L 381 336 L 386.26096706371777 345.6603429315153 L 398.1147059644819 349.8234163559277 L 391.5509594818159 339.11082850910805" stroke-miterlimit="10" stroke-dasharray=""/></g></g></svg>